<?xml version="1.0" encoding="utf-8"?>
<!-- Generator: Adobe Illustrator 16.0.0, SVG Export Plug-In . SVG Version: 6.00 Build 0)  -->
<!DOCTYPE svg PUBLIC "-//W3C//DTD SVG 1.1//EN" "http://www.w3.org/Graphics/SVG/1.1/DTD/svg11.dtd">
<svg version="1.1" id="Layer_1" xmlns="http://www.w3.org/2000/svg" xmlns:xlink="http://www.w3.org/1999/xlink" x="0px" y="0px"
	 width="767px" height="340.02px" viewBox="201.5 0 767 340.02" enable-background="new 201.5 0 767 340.02" xml:space="preserve">
<g>
	<g>
		<defs>
			<rect id="SVGID_1_" x="201.5" y="661.93" width="792.663" height="138.492"/>
		</defs>
		<clipPath id="SVGID_2_">
			<use xlink:href="#SVGID_1_"  overflow="visible"/>
		</clipPath>
		<path clip-path="url(#SVGID_2_)" fill="#EF8F7C" d="M994.163,667.584v124.713c-5.748-0.447-5.637,1.256-9.513,2.114
			c-2.99,0.661-5.675-2.583-9.862-1.409c-1.985,0.557-2.966,2.07-5.288,2.467c-0.993-1.403-2.66-1.994-3.875-3.172h-3.522
			c-1.277,0.419-2.336,2.426-4.226,2.114c-0.851-0.141-2.233-1.197-3.173-1.409c-2.134-0.48-3.576,1.102-4.934,1.409
			c-1.785,0.403-3.276-1.093-4.577-1.409c-2.947-0.724-4.307,1.852-6.695,1.409c-1.392-0.262-2.858-1.736-4.229-2.114
			c-4.109-1.141-5.064,2.621-8.809,1.762c-4.267-0.982-9.175-1.25-13.385,0c-3.065,0.911-4.476-1.75-7.4-1.057
			c-1.589,0.373-3.102,1.831-4.58,2.11c-2.711,0.521-4.005-2.896-7.398-2.11c-2.329,0.533-3.544,1.943-6.343,2.11
			c-2.508-2.729-4.711-3.118-8.452-2.11c-1.768,0.477-4.444-0.441-5.638-0.354c-2.448,0.184-4.799,1.588-6.695,2.114
			c-4.086,1.136-5.963-2.815-10.215-1.407c-1.938,0.64-2.304,1.98-5.285,2.113c-2.186-2.242-5.338-2.844-9.16-1.762
			c-0.898,0.253-2.424,1.111-3.875,0.704c-1.352-0.382-2.906-2.045-5.285-1.409c-1.663,0.441-3.237,2.781-5.285,2.467
			c-1.726-0.271-3.522-2.174-6.337-1.41c-1.371,0.373-2.952,2.121-5.287,1.41c-1.761-1.057-3.522-2.113-5.285-3.172
			c-2.468,0.115-4.934,0.235-7.399,0.352c-0.939-0.218-2.551-1.228-4.227-0.706c-0.984,0.315-2.246,1.921-3.172,2.116
			c-2.673,0.567-5.038-3.115-8.806-2.116c-2.23,0.597-2.965,2.002-5.99,2.116c-6.432-7.047-9.288,0.672-16.913-0.703
			c-3.331-0.605-5.954,1.028-8.808,1.056c-1.726,0.015-3.154-1.851-5.281-1.409c-1.726,0.356-3.687,2.428-5.287,2.467
			c-1.691,0.047-3.289-1.639-5.637-1.057c-2.389,0.593-3.371,2.377-5.984,2.819c-2.73-2.633-12.746-3.774-17.615-1.763
			c-1.367,0.562-2.574,2.398-3.875,2.814c-2.33,0.752-3.607-1.283-5.638-1.404c-3.974-0.241-5.313,3.115-9.163,2.11
			c-2.499-0.648-3.578-2.368-7.043-2.466c-0.806,0.654-1.975,0.769-2.819,1.41c-0.956,0.723-0.9,1.869-2.116,2.467
			c-0.498-2.047-1.6-2.622-2.815-3.877c-1.524-0.019-2.786,0.126-3.877,0.355c-0.551,0.842-1.032,1.023-1.411,2.109
			c-0.279,0.418-0.271,0.596-0.35,1.41h-2.467c0.02-1.021,0.02-1.928-0.354-2.466c-0.457-1.36-1.262-1.582-2.111-2.466
			c-1.525-0.025-2.787,0.126-3.877,0.35c-0.586,0.705-1.174,1.412-1.762,2.116v2.466h-6.695c-0.115-0.705-0.234-1.41-0.35-2.117
			c-0.705-0.584-1.411-1.166-2.116-1.76c-1.521-0.018-2.786,0.127-3.878,0.355c-0.547,0.842-1.029,1.024-1.407,2.109
			c-0.28,0.419-0.272,0.597-0.353,1.41h-3.521c-0.12-0.705-0.234-1.41-0.355-2.117c-0.703-0.584-1.408-1.165-2.11-1.759
			c-1.524-0.019-2.787,0.127-3.876,0.354c-0.551,0.843-1.032,1.025-1.411,2.11c-0.279,0.419-0.271,0.597-0.353,1.411h-4.579
			c-0.116-1.057-0.235-2.117-0.354-3.17c-0.705-0.588-1.407-1.178-2.113-1.763c-1.524-0.024-2.786,0.126-3.876,0.351
			c-0.329,0.543-2.479,4.367-2.818,4.582c-0.317-2.242-1.594-2.621-2.818-3.877c-1.525-0.019-2.786,0.125-3.877,0.355
			c-0.551,0.842-1.031,1.023-1.41,2.109c-0.281,0.418-0.27,0.596-0.35,1.41h-4.581c-0.114-1.055-0.235-2.117-0.349-3.17
			c-0.706-0.587-1.411-1.177-2.117-1.762c-1.524-0.025-2.785,0.126-3.875,0.35c-0.586,0.706-1.174,1.412-1.761,2.116v2.466h-4.58
			c-0.117-0.705-0.235-1.41-0.352-2.117c-0.705-0.584-1.411-1.166-2.114-1.759c-1.523-0.019-2.787,0.126-3.875,0.354
			c-0.55,0.842-1.031,1.024-1.409,2.109c-0.282,0.419-0.273,0.596-0.353,1.411h-3.523c-0.119-0.706-0.236-1.411-0.354-2.117
			c-0.704-0.585-1.409-1.167-2.114-1.76c-1.522-0.018-2.786,0.126-3.874,0.355c-0.548,0.842-1.031,1.024-1.411,2.109
			c-0.281,0.419-0.271,0.597-0.351,1.411h-5.286c-1.179-0.516-2.058-2.74-4.931-1.761c-1.998,0.677-1.157,1.719-4.934,1.761
			c-0.118-0.705-0.236-1.411-0.353-2.117c-0.705-0.585-1.409-1.166-2.113-1.76c-1.524-0.019-2.788,0.125-3.876,0.355
			c-0.548,0.842-1.031,1.023-1.41,2.109c-0.281,0.419-0.272,0.595-0.352,1.41h-3.523c-0.67-1.337-1.52-1.824-2.466-2.822
			c-4.877,0.02-3.91,2.662-8.104,2.822c-0.668-1.337-1.52-1.824-2.466-2.822c-5.597,0.03-3.289,1.6-5.637,2.822h-4.581
			c-0.668-1.337-1.521-1.824-2.467-2.822c-5.605,0.03-3.636,2.759-9.158,2.822c-0.67-1.337-1.522-1.824-2.468-2.822
			c-5.615-0.371-5.028,2.307-8.807,2.822c-0.769-1.942-1.553-2.559-2.818-3.876c-1.523-0.019-2.786,0.126-3.876,0.354
			c-0.548,0.842-1.031,1.023-1.409,2.109c-0.283,0.419-0.273,0.596-0.353,1.41h-6.343c-1.179-0.514-2.056-2.738-4.931-1.76
			c-1.998,0.677-1.161,1.719-4.934,1.76c-0.67-1.336-1.521-1.822-2.466-2.822c-2.191,0.02-5.744,1.382-6.695,1.062
			c-2.226-0.756-1.861-2.076-5.987-2.115c-2.885,3.268-2.692,4.039-9.16,3.875c-0.117-0.705-0.235-1.41-0.353-2.117
			c-0.705-0.584-1.409-1.165-2.114-1.758c-1.154-0.041-2.528-0.082-3.169,0.354c-2.408,0.872-2.548,3.165-5.639,3.52
			c-0.083-0.962-0.255-1.875-0.704-2.466c-0.458-1.359-1.262-1.582-2.114-2.467c-3.866-0.012-5.598,1.129-8.102,1.764
			c-2.723,0.68-3.714-2.003-6.695-1.058c-0.979,0.309-1.969,1.794-2.818,2.108c-1.758,0.666-6.604-2.174-10.568-1.402
			c-0.549,0.842-1.03,1.023-1.409,2.109c-0.282,0.419-0.274,0.596-0.353,1.41h-2.817c-0.235-1.055-0.471-2.117-0.706-3.17
			c-0.843-0.552-1.03-1.033-2.113-1.412c-2.737-2.098-4.976,1.153-7.047,1.76c-2.583-0.114-5.167-0.228-7.75-0.348
			c-1.263,0.291-2.787,1.448-3.876,1.76c-2.789,0.789-4.191-2.867-7.046-1.056c-3.451,1.262-2.008,2.493-8.102,2.466
			c-0.119-0.706-0.236-1.41-0.353-2.117c-0.706-0.584-1.41-1.166-2.115-1.76c-3.943-0.051-4.494,1.583-7.398,2.117
			c-0.854-1.309-2.128-2.071-3.17-3.172c-5.271-0.029-3.873,2.377-7.047,3.172c-1.262-1.451-4.606-3.293-6.694-1.762
			c-2.092,0.768-1.756,2.053-4.932,2.109c-1.706-1.65-4.576-3.09-7.75-3.172h-4.934c-1.339-0.406-3.499-2.387-5.636-1.057
			c-1.706,0.575-2.171,2.387-3.524,2.815c-3.106,1.003-4.474-3.243-8.102-2.465c-1.706,0.366-3.077,1.931-5.638,1.411
			c-2.175-0.447-5.584-2.186-8.104-1.411c-1.473,0.458-2.095,1.565-4.228,1.767c-0.829-1.67-1.969-2.301-3.171-3.525
			c-4.585-0.061-3.476,1.449-5.636,2.114c-1.726,0.531-3.704-2.163-5.99-0.706c-2.203,0.808-1.961,2.609-4.933,2.814
			c-1.429-1.422-5.542-5.795-8.807-4.93c-0.992,0.263-2.214,1.546-3.523,1.41c-2.172-0.224-3.986-3.029-7.398-2.115
			c-1.897,0.515-3.061,1.771-5.286,2.115c-1.162-1.807-2.956-2.834-5.989-2.814c-1.224,1.071-3.323,3.044-5.284,3.169
			c-1.477-2.35-3.395-3.263-7.398-3.169c-1.441,1.457-3.216,3.091-5.989,3.169c-0.883-1.494-2.026-2.011-3.172-3.169
			c-5.275-0.07-5.199,2.718-8.807,3.52c-0.94-1.434-2.375-2.311-3.522-3.52c-3.677-0.287-4.583,1.209-7.752,1.76V664.397
			c5.722,0,11.799-0.487,16.205,1.056c1.919,0.677,4.412,2.77,8.103,1.764c2.12-0.577,4.264-2.239,6.341-2.819h13.777
			c6.188-1.462,5.807-1.429,12.33,0c3.235,0.71,5.741-1.231,7.752-1.761c2.33-0.613,3.619,1.01,4.932,1.41
			c6.491,1.996,10.771-3.57,17.262-1.762c2.698,0.752,4.874,3.125,7.751,3.871c3.816,0.994,5.477-2.545,9.16-1.76
			c3.676,0.786,10.215,1.995,14.795,0.705c1.325-0.373,3.156-1.961,4.933-1.762c1.381,0.156,3.023,1.418,4.228,1.762
			c2.466,0.121,4.934,0.236,7.398,0.351c1.155,0.321,2.681,1.451,3.875,1.765c2.929,0.77,4.89-1.278,6.694-1.765
			c1.94-0.522,4.194,0.544,5.637,0.704c1.561,0.186,3.441-1.106,4.581-1.402c2.347,0.234,4.697,0.469,7.045,0.698
			c2.361,0.103,4.552-0.648,6.343-1.056c2.868-0.653,5.521,0.911,8.103,1.056c3.849,0.224,7.081-0.454,9.865-1.056
			c2.013-0.436,4.38,0.693,5.987,1.056c4.899,1.107,10.435-0.974,14.093-0.351c0.578,3.016,1.803,3.572,3.523,5.286
			c5.643,0.212,9.263,1.782,13.74,2.815c3.524,0.119,7.046,0.236,10.569,0.354c0.676,0.161,1.437,0.7,2.466,0.7
			c1.526-0.23,3.052-0.465,4.581-0.7c1.846,0.401,4.375,2.345,7.398,1.405c1.017-0.309,1.605-1.525,3.171-1.405
			c1.311,0.099,2.022,1.433,3.171,1.761c3.043,0.865,4.567-1.084,6.693-1.409c5.152,7.901,9.458-0.219,15.502,1.056
			c3.52,0.744,5.29-0.855,7.75-1.406c3.204-0.729,4.681,3.018,8.457,2.111c1.171-0.282,3.056-1.142,4.228-1.41
			c0.939,0.119,1.878,0.234,2.819,0.354c1.527-0.252,3.505-0.54,5.285-1.057c2.067-0.603,3.167-1.852,5.636-2.116
			c1.736,1.91,3.521,3.745,7.048,3.877c1.177-0.848,4.364-2.953,5.987-2.821c1.084,0.093,2.508,1.128,4.229,0.706
			c2.06-0.507,2.806-1.871,5.282-2.11c1.108,1.808,3.782,5.546,7.752,4.226c1.816-0.609,2.354-2.334,4.58-2.821
			c1.335-0.47,3.979,1.828,7.046,1.061c1.908-0.481,3.511-2.97,6.341-2.116c1.659,0.506,3.277,2.598,6.341,1.762
			c1.73-0.471,2.244-1.6,4.581-1.762c3.385,4.973,7.39,1.096,11.274,0.351c1.643,0.235,3.287,0.468,4.932,0.705
			c1.935-0.417,2.459-1.564,4.934-1.761c4.242,4.68,7.176,1.135,11.977,0.355c2.1,2.07,6.285,6.066,10.924,4.225
			c0.951-0.377,1.765-1.812,2.816-2.115c2.627-0.762,4.428,1.984,7.753,1.057c1.616-0.448,2.924-2.041,4.581-2.467
			c3.395-0.866,5.159,2.544,9.157,1.41c1.106-0.309,2.099-1.858,3.876-1.41c1.598,0.405,3.082,2.585,5.989,1.766
			c1.718-0.488,2.038-1.836,4.229-2.116c0.762,1.169,1.883,1.829,2.814,2.816c4.542-0.025,7.404-3.54,8.459-3.167
			c1.293,0.585,3.193,2.488,4.227,3.521c5.971,0.25,5.045-2.494,9.512-2.822c1.497,1.663,4.73,4.651,8.104,3.173
			c1.423-0.62,1.514-1.728,3.525-2.112c1.563,1.687,4.846,3.848,7.748,2.112c0.613-0.368,1.298-1.555,2.116-1.763
			c2.401-0.605,4.206,2.076,7.043,1.412c2.371-0.559,4.386-2.488,6.694-2.822c1.682-0.242,3.154,1.842,5.284,1.41
			c2.239-0.452,3.312-2.557,4.935-3.172c1.943-0.731,3.102,1.601,5.281,1.062c1.548-0.385,2.805-2.236,4.229-2.471
			c3.46-0.558,5.823,4.023,10.215,2.82c2.403-0.66,2.968-2.82,5.64-3.172c5.149,5.705,6.994,1.188,12.332,0.705
			c1.68,1.854,5.131,4.417,8.452,2.467c0.913-0.533,1.653-1.796,2.821-2.116c2.113,0.12,4.227,0.234,6.342,0.354
			c1.912-0.55,2.693-2.058,4.933-2.467c1.733,1.692,4.529,3.041,7.752,3.173c1.587-1.274,2.908-2.019,4.225-3.526
			c2.1,0.619,2.703,2.575,4.583,3.17c3.448,1.097,4.318-2.293,6.692-2.109c3.016,0.231,6.225,2.85,10.219,1.762
			c1.062-0.294,2.521-1.463,3.521-1.762c3.05-0.928,4.935,1.434,7.399,1.057c1.796-0.281,3.796-2.367,5.989-1.762
			c1.319,0.36,2.408,2.092,4.932,1.406c1.508-0.406,2.555-2.231,3.875-1.762c2.819,0.809,3.227,2.957,7.048,3.17
			c1.354-0.997,3.487-2.172,5.282-2.465c1.543,1.656,4.259,4.301,7.753,2.821c1.352-0.573,2.457-2.649,5.282-1.765
			c1.346,0.424,2.446,2.057,3.878,2.471c3.632,1.032,5.155-2.311,8.454-1.062c0.746,0.282,1.841,1.51,2.817,1.762
			c3.421,0.899,4.254-2.289,7.751-1.404c1.626,0.406,3.1,1.509,5.286,0.705c1.437-0.533,2.275-2.412,4.932-1.766
			c6.734,1.656,10.062-0.154,16.205-1.76c3.807-0.992,6.682,1.76,10.217,1.057c2.426-0.483,4.648-2.072,6.691-2.468
			c3.017-0.572,6.083,2.375,10.219,1.411c2.351-0.545,6.862-2.499,9.862-1.76c1.829,0.447,3.532,2.711,6.696,1.76
			c1.223-0.364,2.544-1.834,4.58-1.411c1.573,0.333,3.446,1.681,5.988,1.061c2.191-0.532,5.067-2.202,8.455-1.409
			C986.105,666.654,989.213,667.584,994.163,667.584"/>
	</g>
</g>
<path fill="#1CAEAD" d="M1285.615-23.076v209.36c-8.062-0.752-7.901,2.109-13.341,3.547c-4.195,1.11-7.958-4.337-13.833-2.366
	c-2.781,0.936-4.157,3.476-7.415,4.141c-1.395-2.359-3.731-3.352-5.438-5.322h-4.935c-1.794,0.7-3.277,4.072-5.93,3.547
	c-1.189-0.237-3.13-2.007-4.448-2.367c-2.992-0.805-5.017,1.851-6.919,2.367c-2.503,0.677-4.597-1.835-6.421-2.367
	c-4.134-1.21-6.041,3.109-9.392,2.367c-1.949-0.438-4.006-2.913-5.93-3.547c-5.762-1.917-7.101,4.399-12.352,2.954
	c-5.983-1.648-12.867-2.097-18.772,0c-4.301,1.532-6.277-2.936-10.379-1.773c-2.229,0.626-4.351,3.073-6.422,3.545
	c-3.806,0.876-5.617-4.861-10.378-3.545c-3.266,0.896-4.97,3.265-8.896,3.545c-3.519-4.583-6.606-5.236-11.854-3.545
	c-2.476,0.801-6.23-0.74-7.904-0.595c-3.436,0.307-6.73,2.668-9.389,3.551c-5.73,1.906-8.365-4.727-14.328-2.368
	c-2.717,1.08-3.232,3.331-7.415,3.553c-3.062-3.764-7.485-4.774-12.845-2.955c-1.261,0.425-3.399,1.867-5.436,1.181
	c-1.895-0.642-4.076-3.432-7.414-2.367c-2.331,0.743-4.539,4.671-7.41,4.142c-2.42-0.452-4.94-3.648-8.89-2.367
	c-1.924,0.627-4.14,3.561-7.414,2.367c-2.47-1.773-4.939-3.552-7.411-5.321c-3.462,0.191-6.922,0.391-10.379,0.587
	c-1.318-0.367-3.579-2.062-5.928-1.185c-1.383,0.52-3.151,3.224-4.447,3.551c-3.749,0.952-7.07-5.229-12.35-3.551
	c-3.131,1.001-4.158,3.36-8.402,3.551c-9.019-11.83-13.024,1.127-23.722-1.185c-4.671-1.01-8.351,1.731-12.353,1.779
	c-2.419,0.021-4.424-3.108-7.407-2.369c-2.419,0.601-5.17,4.075-7.415,4.142c-2.371,0.08-4.617-2.751-7.903-1.773
	c-3.353,0.984-4.728,3.988-8.396,4.731c-3.83-4.421-17.876-6.336-24.705-2.957c-1.918,0.943-3.611,4.024-5.438,4.726
	c-3.263,1.26-5.058-2.155-7.904-2.358c-5.571-0.406-7.456,5.225-12.851,3.541c-3.507-1.089-5.019-3.974-9.879-4.138
	c-1.129,1.097-2.767,1.291-3.954,2.369c-1.338,1.21-1.263,3.136-2.967,4.136c-0.7-3.435-2.246-4.393-3.95-6.505
	c-2.139-0.029-3.906,0.21-5.436,0.598c-0.771,1.417-1.449,1.721-1.979,3.541c-0.393,0.706-0.382,1.004-0.49,2.367h-3.456
	c0.023-1.712,0.023-3.233-0.5-4.136c-0.639-2.284-1.771-2.656-2.959-4.141c-2.139-0.038-3.91,0.213-5.438,0.589
	c-0.824,1.183-1.648,2.369-2.473,3.552v4.136h-9.389c-0.16-1.182-0.332-2.367-0.491-3.55c-0.987-0.98-1.979-1.963-2.968-2.955
	c-2.133-0.029-3.908,0.21-5.436,0.598c-0.768,1.417-1.444,1.721-1.975,3.541c-0.392,0.706-0.382,1.004-0.493,2.367h-4.939
	c-0.17-1.182-0.33-2.367-0.496-3.55c-0.984-0.98-1.975-1.963-2.962-2.955c-2.139-0.029-3.907,0.21-5.436,0.598
	c-0.771,1.417-1.449,1.721-1.979,3.541c-0.392,0.706-0.381,1.004-0.495,2.367h-6.419c-0.165-1.769-0.33-3.55-0.495-5.319
	c-0.989-0.984-1.973-1.977-2.965-2.958c-2.139-0.038-3.906,0.213-5.437,0.589c-0.46,0.917-3.473,7.333-3.951,7.688
	c-0.445-3.76-2.235-4.393-3.955-6.505c-2.136-0.029-3.907,0.21-5.436,0.598c-0.771,1.417-1.448,1.721-1.977,3.541
	c-0.396,0.706-0.379,1.004-0.492,2.367h-6.424c-0.16-1.769-0.331-3.55-0.49-5.319c-0.988-0.984-1.978-1.977-2.969-2.958
	c-2.139-0.038-3.91,0.213-5.437,0.589c-0.82,1.183-1.646,2.369-2.468,3.552v4.136h-6.424c-0.165-1.182-0.331-2.367-0.493-3.55
	c-0.988-0.98-1.978-1.963-2.964-2.955c-2.14-0.029-3.909,0.21-5.437,0.598c-0.771,1.417-1.447,1.721-1.975,3.541
	c-0.396,0.706-0.385,1.004-0.495,2.367h-4.942c-0.165-1.182-0.329-2.367-0.494-3.55c-0.986-0.98-1.976-1.963-2.963-2.955
	c-2.137-0.029-3.909,0.21-5.435,0.598c-0.771,1.417-1.447,1.721-1.979,3.541c-0.395,0.706-0.383,1.004-0.493,2.367h-7.411
	c-1.657-0.865-2.886-4.597-6.917-2.954c-2.803,1.136-1.622,2.888-6.918,2.954c-0.166-1.182-0.331-2.367-0.495-3.55
	c-0.987-0.98-1.976-1.963-2.964-2.955c-2.138-0.029-3.908,0.21-5.435,0.598c-0.771,1.417-1.447,1.721-1.977,3.541
	c-0.396,0.706-0.383,1.004-0.494,2.367h-4.939c-0.938-2.241-2.134-3.06-3.46-4.733c-6.84,0.028-5.483,4.465-11.364,4.733
	c-0.938-2.241-2.133-3.06-3.458-4.733c-7.85,0.048-4.613,2.686-7.907,4.733h-6.422c-0.94-2.241-2.136-3.06-3.461-4.733
	c-7.862,0.048-5.101,4.631-12.845,4.733c-0.939-2.241-2.134-3.06-3.461-4.733c-7.874-0.625-7.053,3.869-12.353,4.733
	c-1.077-3.259-2.178-4.29-3.952-6.505c-2.137-0.029-3.907,0.21-5.434,0.598c-0.771,1.417-1.445,1.721-1.978,3.541
	c-0.396,0.706-0.383,1.004-0.494,2.367h-8.895c-1.655-0.865-2.885-4.597-6.915-2.954c-2.801,1.136-1.627,2.888-6.919,2.954
	c-0.938-2.241-2.133-3.06-3.458-4.733c-3.071,0.028-8.054,2.318-9.389,1.78c-3.124-1.268-2.609-3.483-8.398-3.552
	c-4.046,5.487-3.776,6.787-12.848,6.506c-0.163-1.182-0.329-2.367-0.493-3.551c-0.989-0.98-1.977-1.963-2.966-2.955
	c-1.62-0.066-3.548-0.133-4.444,0.597c-3.377,1.463-3.575,5.315-7.908,5.909c-0.118-1.616-0.358-3.146-0.987-4.137
	c-0.643-2.282-1.77-2.655-2.966-4.14c-5.422-0.022-7.852,1.894-11.362,2.957c-3.819,1.146-5.209-3.363-9.389-1.773
	c-1.376,0.519-2.762,3.013-3.953,3.54c-2.465,1.119-9.259-3.648-14.82-2.357c-0.771,1.417-1.446,1.721-1.977,3.541
	c-0.395,0.705-0.385,1.003-0.495,2.369h-3.952c-0.33-1.772-0.66-3.552-0.989-5.32c-1.184-0.925-1.446-1.735-2.964-2.369
	c-3.839-3.524-6.98,1.933-9.884,2.953c-3.623-0.195-7.247-0.385-10.869-0.584c-1.771,0.487-3.909,2.434-5.437,2.95
	c-3.911,1.329-5.879-4.811-9.882-1.769c-4.842,2.118-2.817,4.187-11.363,4.138c-0.165-1.183-0.331-2.369-0.495-3.553
	c-0.989-0.979-1.977-1.963-2.965-2.953c-5.529-0.085-6.303,2.657-10.376,3.551c-1.199-2.194-2.984-3.474-4.446-5.323
	c-7.392-0.049-5.433,3.996-9.883,5.323c-1.769-2.435-6.459-5.525-9.387-2.954c-2.936,1.288-2.462,3.445-6.918,3.54
	c-2.395-2.769-6.416-5.187-10.87-5.32h-6.919c-1.878-0.684-4.909-4.007-7.905-1.774c-2.392,0.964-3.044,4.006-4.942,4.729
	c-4.357,1.683-6.274-5.448-11.363-4.14c-2.394,0.616-4.317,3.243-7.908,2.368c-3.05-0.753-7.83-3.669-11.364-2.368
	c-2.065,0.769-2.938,2.629-5.929,2.965c-1.162-2.8-2.762-3.862-4.446-5.92c-6.431-0.098-4.875,2.437-7.906,3.552
	c-2.42,0.892-5.193-3.629-8.4-1.186c-3.088,1.358-2.75,4.372-6.917,4.729c-2.005-2.39-7.774-9.733-12.352-8.278
	c-1.392,0.441-3.104,2.598-4.94,2.366c-3.048-0.375-5.591-5.082-10.376-3.55c-2.66,0.863-4.295,2.974-7.414,3.55
	c-1.63-3.031-4.146-4.755-8.399-4.725c-1.717,1.798-4.661,5.112-7.41,5.32c-2.071-3.944-4.763-5.477-10.377-5.32
	c-2.022,2.447-4.511,5.189-8.4,5.32c-1.238-2.508-2.84-3.376-4.446-5.32c-7.4-0.114-7.293,4.565-12.354,5.909
	c-1.316-2.407-3.33-3.879-4.939-5.909c-5.155-0.481-6.429,2.029-10.871,2.952v-215.86c8.026,0,16.549-0.819,22.728,1.771
	c2.692,1.135,6.189,4.649,11.364,2.963c2.973-0.97,5.98-3.762,8.895-4.734h19.271c8.679-2.456,8.144-2.399,17.292,0
	c4.538,1.192,8.051-2.07,10.871-2.955c3.269-1.029,5.076,1.694,6.918,2.367c9.103,3.352,15.105-5.995,24.21-2.957
	c3.784,1.265,6.835,5.247,10.871,6.499c5.353,1.666,7.683-4.273,12.847-2.954c5.156,1.317,14.328,3.348,20.753,1.186
	c1.856-0.629,4.425-3.292,6.918-2.958c1.936,0.262,4.239,2.377,5.929,2.958c3.458,0.198,6.918,0.393,10.376,0.585
	c1.618,0.54,3.76,2.436,5.435,2.963c4.109,1.291,6.86-2.145,9.39-2.963c2.722-0.877,5.881,0.914,7.904,1.184
	c2.188,0.31,4.825-1.856,6.424-2.359c3.294,0.397,6.589,0.789,9.881,1.175c3.312,0.172,6.383-1.086,8.895-1.771
	c4.022-1.097,7.745,1.528,11.364,1.771c5.398,0.374,9.931-0.76,13.837-1.771c2.824-0.729,6.141,1.165,8.397,1.771
	c6.87,1.856,14.635-1.636,19.765-0.585c0.81,5.061,2.528,5.997,4.94,8.875c7.915,0.356,12.993,2.991,19.271,4.724
	c4.942,0.202,9.881,0.395,14.824,0.597c0.947,0.269,2.016,1.176,3.458,1.176c2.141-0.386,4.282-0.78,6.423-1.176
	c2.59,0.674,6.137,3.937,10.375,2.359c1.427-0.522,2.252-2.56,4.449-2.359c1.839,0.165,2.835,2.404,4.446,2.954
	c4.271,1.454,6.406-1.818,9.387-2.366c7.227,13.264,13.264-0.367,21.741,1.771c4.937,1.253,7.42-1.436,10.869-2.359
	c4.494-1.222,6.564,5.063,11.861,3.543c1.642-0.473,4.286-1.915,5.927-2.367c1.318,0.202,2.635,0.393,3.954,0.596
	c2.141-0.421,4.915-0.907,7.411-1.771c2.899-1.01,4.442-3.109,7.903-3.553c2.436,3.206,4.938,6.287,9.885,6.507
	c1.649-1.423,6.122-4.957,8.397-4.736c1.521,0.154,3.517,1.896,5.929,1.186c2.892-0.847,3.938-3.139,7.412-3.542
	c1.552,3.033,5.306,9.309,10.873,7.093c2.547-1.021,3.3-3.917,6.422-4.736c1.873-0.789,5.58,3.071,9.884,1.781
	c2.675-0.809,4.923-4.986,8.892-3.554c2.326,0.85,4.595,4.363,8.895,2.958c2.424-0.79,3.146-2.687,6.423-2.958
	c4.746,8.35,10.364,1.839,15.811,0.588c2.305,0.396,4.611,0.791,6.92,1.185c2.713-0.701,3.449-2.626,6.917-2.956
	c5.952,7.855,10.066,1.907,16.799,0.599c2.944,3.476,8.813,10.184,15.317,7.093c1.336-0.634,2.476-3.042,3.949-3.551
	c3.688-1.28,6.214,3.331,10.873,1.772c2.269-0.751,4.103-3.428,6.426-4.141c4.762-1.451,7.238,4.271,12.842,2.369
	c1.554-0.52,2.946-3.117,5.439-2.369c2.24,0.682,4.321,4.343,8.398,2.965c2.41-0.819,2.861-3.081,5.934-3.553
	c1.069,1.966,2.642,3.073,3.948,4.729c6.369-0.04,10.386-5.941,11.861-5.314c1.814,0.98,4.48,4.178,5.929,5.909
	c8.373,0.425,7.075-4.188,13.34-4.736c2.1,2.791,6.636,7.808,11.366,5.324c1.994-1.039,2.121-2.899,4.94-3.543
	c2.195,2.83,6.798,6.458,10.867,3.543c0.86-0.617,1.822-2.61,2.969-2.955c3.37-1.019,5.901,3.486,9.88,2.367
	c3.326-0.935,6.151-4.175,9.39-4.736c2.355-0.405,4.423,3.09,7.41,2.369c3.141-0.76,4.645-4.294,6.92-5.325
	c2.726-1.23,4.347,2.686,7.405,1.783c2.173-0.644,3.935-3.754,5.934-4.15c4.853-0.934,8.167,6.758,14.326,4.736
	c3.37-1.107,4.162-4.736,7.91-5.321c7.223,9.575,9.808,1.991,17.294,1.183c2.357,3.109,7.197,7.413,11.852,4.138
	c1.285-0.894,2.32-3.013,3.959-3.55c2.961,0.2,5.926,0.393,8.894,0.597c2.681-0.924,3.778-3.457,6.918-4.142
	c2.432,2.841,6.351,5.105,10.871,5.327c2.226-2.138,4.082-3.39,5.927-5.922c2.943,1.038,3.791,4.322,6.426,5.321
	c4.833,1.842,6.055-3.85,9.385-3.541c4.229,0.386,8.729,4.784,14.329,2.957c1.494-0.492,3.538-2.456,4.94-2.957
	c4.275-1.56,6.923,2.407,10.378,1.773c2.519-0.473,5.323-3.976,8.4-2.957c1.85,0.606,3.376,3.516,6.915,2.358
	c2.117-0.681,3.582-3.745,5.436-2.954c3.955,1.358,4.526,4.968,9.883,5.322c1.899-1.674,4.892-3.645,7.41-4.138
	c2.161,2.784,5.974,7.221,10.872,4.738c1.898-0.966,3.446-4.451,7.41-2.968c1.886,0.712,3.429,3.456,5.438,4.151
	c5.095,1.734,7.23-3.88,11.858-1.784c1.044,0.473,2.58,2.534,3.951,2.956c4.799,1.512,5.963-3.841,10.871-2.355
	c2.279,0.681,4.347,2.53,7.413,1.184c2.019-0.895,3.193-4.053,6.917-2.964c9.447,2.782,14.114-0.26,22.726-2.958
	c5.34-1.664,9.373,2.958,14.33,1.771c3.403-0.809,6.521-3.474,9.387-4.14c4.229-0.961,8.527,3.987,14.33,2.368
	c3.298-0.914,9.626-4.196,13.832-2.954c2.565,0.749,4.952,4.552,9.393,2.954c1.713-0.613,3.569-3.08,6.421-2.368
	c2.208,0.56,4.835,2.823,8.401,1.78c3.07-0.894,7.104-3.693,11.856-2.366C1274.315-24.634,1278.674-23.076,1285.615-23.076"/>
<rect x="-5.331" y="-1.893" fill="none" width="1546.164" height="270.142"/>
<g>
	<g>
		<defs>
			<rect id="SVGID_3_" x="196.503" y="-3" width="199.997" height="327.418"/>
		</defs>
		<clipPath id="SVGID_4_">
			<use xlink:href="#SVGID_3_"  overflow="visible"/>
		</clipPath>
		<path clip-path="url(#SVGID_4_)" fill="#7C7776" d="M204.264,6.876l-2.124-0.804C168.548,119.74,306.136,92.761,322.107,186.346
			c7.017,41.106-13.566,72.869-48.229,79.263c-29.355,5.415-61.002-10.636-67.541-46.065c-7.665-41.551,32.261-62.829,60.062-52.071
			c-29.368-14.681-69.704,10.984-62.056,52.532c7.064,38.188,40.577,53.496,69.93,48.085c34.681-6.392,58.418-37.556,50.616-82.402
			C308.639,92.154,179.866,119.624,204.264,6.876"/>
	</g>
	<g>
		<defs>
			<rect id="SVGID_5_" x="196.503" y="-3" width="199.997" height="327.418"/>
		</defs>
		<clipPath id="SVGID_6_">
			<use xlink:href="#SVGID_5_"  overflow="visible"/>
		</clipPath>
		<path clip-path="url(#SVGID_6_)" fill="#7C7776" d="M272.395,258.099c32.436-5.98,50.072-37.349,44.009-70.132
			c-14.771-79.989-105.504-67.445-118.5-128.077l-1.173,0.215c11.372,61.684,103.696,48.099,118.456,128.076
			c6.052,32.792-10.488,63.273-42.905,69.254c-39.699,7.327-62.831-33.149-54.451-55.166
			C208.579,226.453,234.095,265.158,272.395,258.099"/>
	</g>
	<g>
		<defs>
			<rect id="SVGID_7_" x="196.503" y="-3" width="199.997" height="327.418"/>
		</defs>
		<clipPath id="SVGID_8_">
			<use xlink:href="#SVGID_7_"  overflow="visible"/>
		</clipPath>
		<path clip-path="url(#SVGID_8_)" fill="#7C7776" d="M380.961,131.095c-0.574-0.049-1.171-0.199-1.768-0.405
			c8.586,0.216,13.522-8.603,13.522-8.603c-3.123,3.515-6.955,3.676-6.955,3.676c5.498-6.192,5.252-15.217,5.252-15.217
			c-9.817,3.779-13.801,10.63-13.801,10.63c-1.988-4.581-0.709-7.938-0.709-7.938c-5.116,5.191-2.841,11.641-1.44,14.468
			c-1.861-2.288-2.98-5.636-2.114-9.949c1.633-8.136,12.246-10.852,12.246-10.852c-9.154,5.587-8.012,12.49-8.012,12.49
			c4.909-9.55,15.356-10.622,15.356-10.622c0.842,8.194-4.36,15.531-4.36,15.531c5.076-1.998,6.709-6.458,6.709-6.458
			C394.508,125.439,385.244,131.458,380.961,131.095 M372.566,135.322c-1.123-0.534-1.049-2.339-0.816-3.68
			c0.166,0.022,0.371,0.008,0.552,0.019c-0.117,0.731-0.234,2.206,0.534,2.804c0.561,0.441,1.481-0.03,2.199-0.542
			c0.014,0.13,0.033,0.246,0.05,0.373C374.384,135.088,373.471,135.752,372.566,135.322 M395.122,110.299
			c0,0,0.113,7.354-4.997,12.081c0,0,5.685-7.44,3.521-14.899c0,0-10.169-1.078-15.554,9.062c0,0,1.333-8.156,12.941-10.683
			c0,0-3.388-1.713-10.236,1.32c-6.843,3.031-14.122,10.578-8.144,20.307c0,0-1.86-0.435-3.057,0.476
			c-0.794,0.611-0.687,2.509,1.037,3.343c-0.324,1.302-0.699,3.389-0.232,4.748c-12.343,20.093-28.462,38.639-71.406,35.945
			c-20.723-1.299-38.689-9.056-53.469-21.078c3.122,2.316,6.461,4.516,10.034,6.589c24.797,14.388,53.815,14.216,75.015-0.266
			c0.861-0.431,1.975-1.072,2.978-2.221c3.632-2.822,6.988-6.099,10.019-9.827l0.118,0.103c4.086,1.404,4.523,4.716,9.027,2.531
			c4.505-2.176,4.829-3.806,6.865-3.932c0,0-0.889,0.021-2.064-1.006c-1.144-1-5.77-5.542-9.447-3.967
			c0.462-0.727,0.972-1.403,1.409-2.158c1.382-2.388,2.552-4.789,3.537-7.19c1.086-0.615,3.686-1.449,5.173-4.686
			c1.046-2.288-0.359-4.873-1.857-6.81c0.679-4.009,0.865-7.971,0.654-11.849c3.162-2.809,6.211-1.678,6.462-6.62
			c0.268-5.003-0.994-6.072-0.137-7.907c0,0-0.406,0.794-1.87,1.324c-0.951,0.345-3.941,1.266-6.008,2.971
			c-0.592-2.365-1.337-4.674-2.213-6.92c-0.008-1.085,0.758-3.625-1.119-6.498c-0.655-0.996-1.708-1.499-2.868-1.756
			c-1.61-2.749-3.429-5.346-5.41-7.749l0.06-0.104c0.487-2.993,2.731-3.675,0.693-6.525c-2.039-2.859-3.193-2.904-3.518-4.281
			c0,0,0.117,0.597-0.458,1.53c-0.343,0.569-1.468,2.204-1.926,3.926c-1.808-1.683-3.708-3.213-5.673-4.591l0.023-0.013
			c-0.424-0.498-0.386-2.804-2.796-4.429c-1.315-0.907-3.026-0.444-4.464,0.245c-5.202-2.409-10.653-3.705-16.037-3.587
			c5.096-0.105,10.467,1.242,15.682,3.764c-1.027,0.537-1.885,1.157-2.257,1.41c-0.903,0.596-1.524,0.498-1.524,0.498
			c1.403,0.277,1.496,1.439,4.424,3.357c2.925,1.929,3.522-0.327,6.493-0.939l0.041-0.026c2.064,1.478,4.062,3.129,5.969,4.945
			c-0.146,0.917-0.076,1.827,0.48,2.576c1.548,2.115,3.509,2.24,4.275,2.527c1.882,2.279,3.637,4.716,5.191,7.311
			c-2.396-0.287-5.063,0.39-5.944,0.562c-1.395,0.282-2.114-0.144-2.114-0.144c1.57,1.04,1.082,2.486,3.68,6.319
			c2.585,3.824,4.463,1.372,8.38,2.144l0.339-0.067c0.872,2.239,1.592,4.552,2.172,6.918c-0.924,0.881-1.612,1.932-1.653,3.22
			c-0.15,4.131,2.884,6.049,3.118,6.946c0.154,3.541-0.056,7.176-0.678,10.855c-0.79-0.933-1.54-1.677-1.878-2.042
			c-1.07-1.125-1.084-2.033-1.084-2.033c-0.054,2.033-1.665,2.429-3.678,7.015c-2.006,4.576,1.322,4.878,2.868,8.917l0.202,0.21
			c-0.968,2.293-2.086,4.595-3.418,6.889c-0.682,1.176-1.444,2.238-2.18,3.348c-2.061,1.503-2.719,3.433-3.2,4.447
			c-2.651,3.366-5.542,6.372-8.663,8.993c0.029-0.054,0.064-0.102,0.091-0.162c1.727-3.773-3.199-8.391-4.272-9.514
			c-1.059-1.128-1.07-2.02-1.07-2.02c-0.068,2.029-1.671,2.418-3.682,7.002c-2.015,4.576,1.316,4.895,2.868,8.924l0.135,0.134
			c-20.675,13.372-48.264,12.827-72.553-1.272c-1.528-0.88-2.99-1.8-4.429-2.729c6.235,2.203,12.9,3.478,19.977,3.58
			c36.729,0.526,66.057-30.552,58.641-62.077c-3.78-16.11-17.133-28.159-29.873-30.191c-17.654-2.841-36.924,9.895-32.695,27.231
			c-1.848-16.48,15.987-27.888,32.47-24.997c12.196,2.15,23.889,13.267,28.004,28.474c7.519,28-19.309,59.189-56.359,58.458
			c-15.994-0.306-31.619-9.324-44.42-24.139c16.311,14.476,37.99,18.817,46.171,18.546c17.786-0.619,32.042-9.832,38.02-16.186
			c7.706-8.208,11.917-19.198,11.551-30.1c-0.25-7.602-3.419-15.199-8.687-20.831c-4.17-4.496-11.516-9.751-22.854-9.352
			c-14.247,0.484-20.087,11.587-20.138,11.695c0.051-0.108,6.223-10.676,20.17-11.151c11.112-0.387,18.346,4.773,22.425,9.167
			c5.183,5.547,8.273,13.028,8.544,20.509c0.345,10.758-3.794,21.586-11.403,29.69c-5.941,6.292-20.066,15.412-37.639,16.008
			c-8.802,0.294-33.897-5.132-50.144-22.925c-3.533-4.653-6.809-9.759-9.756-15.275c-13.46-28.308-17.885-62.562-11.411-94.76
			c0.239,12.413,4.374,24.83,10.74,35.026c7.246,11.609,18.293,19.516,30.26,21.89c10.307,2.047,22.844,1.463,32.354-3.885
			c8.464-4.768,14.746-13.02,17.645-20.909c3.247-8.769,2.393-20.136-3-28.771c-4.122-6.619-11.225-11.012-18.315-13.058
			c-6.999-2.011-15.031-1.041-21.148,2.406c-8.91,5.003-13.13,14.296-11.5,23.361c1.131,6.358,5.381,11.148,11.322,13.765
			c0.956,1.566,2.51,3.708,5.741,4.909c5.038,1.867,10.534-4.927,11.892-6.421c1.372-1.486,2.527-1.579,2.527-1.579
			c-2.633,0.12-3.293-1.923-9.417-4.094c-6.114-2.164-6.191,2.163-11.265,4.56c0,0,2.274,1.216,4.44,1.062
			c4.287-0.291,7.897-1.74,13.102-1.264c-0.979-0.013-3.23,0.05-5.628,0.717c-5.452,1.489-9.728,1.846-12.633,0.266
			c0.329,0.237,0.669,0.896,1.158,1.705c-5.649-2.657-9.508-7.507-10.62-13.706c-1.565-8.827,3.024-17.694,11.729-22.599
			c5.974-3.375,13.037-4.146,19.868-2.171c6.963,1.996,13.028,6.673,17.086,13.181c5.314,8.489,5.421,18.565,2.26,27.163
			c-2.873,7.782-8.073,14.468-16.407,19.18c-9.394,5.299-20.538,5.653-30.707,3.645c-11.811-2.342-21.695-9.756-28.861-21.195
			c-10.9-17.483-11.404-36.479-7.811-51.09h-2.19c-3.051,1.838-5.502,4.542-6.984,7.812c-0.457,1.453-0.907,2.918-1.305,4.403
			c-0.152,0.925-0.29,1.864-0.29,2.833v64.666c1.391,5.969,3.118,11.871,5.198,17.641c12.168,59.412,44.618,85.792,64.241,114.683
			l1.555-3.904c-15.426-23.387-38.432-46.852-53.982-84.79c2.63,4.416,5.577,8.566,8.831,12.373
			c8.911,11.708,19.662,21.692,32.066,29.059l-0.035,0.043c5.395,4.025,9.592,8.712,12.729,13.709
			c10.302,18.486,1.101,38.757-3.49,44.03c-7.279,8.329-17.329,11.594-22.761,11.993c-6.971,0.495-13.899-1.784-19.003-6.228
			c-3.546-3.1-5.964-7.583-6.613-12.313c-0.524-3.733-0.167-9.307,4.44-14.58c5.761-6.614,13.369-5.421,13.448-5.403
			c-0.08-0.018-7.812-1.587-13.702,5.174c-4.702,5.371-5.052,11.04-4.521,14.858c0.659,4.808,3.106,9.372,6.715,12.513
			c5.172,4.508,12.206,6.817,19.265,6.317c5.479-0.392,15.631-3.685,22.998-12.113c4.115-4.729,11.922-20.979,6.583-37.79
			c6.054,14.083,4.466,29.413-3.165,39.165c-14.357,18.353-40.22,19.055-50.885,4.262c-5.792-8.042-6.565-18.16-2.771-24.967
			c5.132-9.181,17.778-13.352,25.086-5.901c-6.781-8.954-20.639-4.608-26.275,5.124c-4.059,7.025-3.483,18.325,2.865,26.567
			c12.435,16.134,39.242,14.173,53.57-3.946c12.508-15.816,10.414-37.042-1.741-52.871c14.096,6.587,35.085,19.064,39.876,26.682
			l2.646,2.082l-1.045-3.674c-4.093-6.508-19.988-16.546-33.327-23.449c7.597,2.339,15.619,3.805,24.085,4.166
			c41.533,1.767,59.827-17.611,72.528-37.917c1.135,0.112,2.458-0.753,3.495-1.683c0.414,0.973,1.36,1.632,2.227,1.517
			c2.382-0.313,2.546-2.976,1.188-5.115c0,0,3.021,2.459,10.357-2.478C398.034,123.573,397.222,114.376,395.122,110.299
			 M274.701,297.165c-0.419,7.418,1.432,13.845-0.778,22.84c0,0,0.932-4.84,0.13-10.334c-1.246-8.701-1.032-15.468,1.59-19.991
			c-0.316,0.988-0.606,1.947-0.952,2.952c13.462-32.336,10.677-54.246,0.557-74.29l-1.676,3.538
			c8.762,17.511,11.628,37.597,2.324,67.022c-1.896,1.312-8.386,2.417-12.31,9.919c-4.151,7.976,5.967,18.512,8.163,21.087
			c2.182,2.571,2.091,4.51,2.091,4.51c0.36-4.392,3.89-5.044,8.771-14.755c4.866-9.693-2.295-10.736-5.208-19.647
			C277.4,290.016,274.901,293.534,274.701,297.165 M237.438,111.829c-9.121,2.504-16.266,3.087-21.127,0.449
			c1.607,1.18,3.242,8.154,11.67,11.295c8.431,3.124,17.62-8.239,19.898-10.736c2.284-2.487,4.213-2.635,4.213-2.635
			c-4.4,0.192-5.493-3.228-15.739-6.857c-10.223-3.617-10.358,3.622-18.838,7.628c0,0,3.805,2.037,7.426,1.778
			c7.417-0.507,13.562-3.151,22.766-2.087C247.706,110.663,242.785,110.348,237.438,111.829"/>
	</g>
</g>
<g>
	<g>
		<defs>
			<rect id="SVGID_9_" x="1148.335" y="-632.7" width="102.729" height="178.655"/>
		</defs>
		<clipPath id="SVGID_10_">
			<use xlink:href="#SVGID_9_"  overflow="visible"/>
		</clipPath>
		<path clip-path="url(#SVGID_10_)" fill="#7C7776" d="M1220.784-550.305c-27.336-11.785-58.928,2.388-63.158,28.292
			c-2.162,13.231,4.103,26.396,13.006,31.872c12.34,7.598,30.713,4.044,32.927-10.249c-3.729,12.912-20.618,15.922-32.058,8.646
			c-8.475-5.393-13.783-17.343-12.142-30.007c3.049-23.294,32.81-38.325,60.326-26.291c11.799,5.156,20.665,16.637,25.676,31.554
			c-7.758-15.743-22.55-25.585-28.723-27.905c-13.508-5.057-27.038-2.578-33.486,0.328c-8.313,3.752-14.875,10.677-17.983,18.953
			c-2.172,5.771-2.154,12.441,0.045,18.291c1.729,4.657,5.595,10.871,14.209,14.088c10.82,4.056,18.634-2.444,18.707-2.509
			c-0.073,0.064-7.97,6.062-18.56,2.095c-8.442-3.161-12.26-9.266-13.948-13.818c-2.162-5.76-2.152-12.322-0.035-18.005
			c3.071-8.164,9.53-14.986,17.741-18.696c6.396-2.864,19.802-5.315,33.147-0.313c6.632,2.489,23.556,14.141,30.312,32.258
			c1.387,5.148,2.36,10.629,2.848,16.361l1.431,0.429v-19.107C1246.564-529.993,1236.636-543.475,1220.784-550.305"/>
	</g>
	<g>
		<defs>
			<rect id="SVGID_11_" x="1148.335" y="-632.7" width="102.729" height="178.655"/>
		</defs>
		<clipPath id="SVGID_12_">
			<use xlink:href="#SVGID_11_"  overflow="visible"/>
		</clipPath>
		<path clip-path="url(#SVGID_12_)" fill="#7C7776" d="M1162.987-514.777c2.073-1.297,2.826-3.607,2.479-5.884h-0.686
			c0.409,2.09-0.15,4.218-1.973,5.416c-4.843,3.181-9.229-2.59-6.335-5.055C1153.263-517.778,1157.298-511.264,1162.987-514.777
			 M1218.694-549.592c-2.26-3.584-0.554-6.382-5.335-7.482c-4.785-1.106-6.034-0.068-7.663-1.216c0,0,0.702,0.53,0.967,2.028
			c0.262,1.508,1,8.076,4.975,8.936c3.979,0.851,6.293-1.413,7.193-1.464c-2.494-0.185-5.074-2.147-7.938-5.314
			c-1.691-1.864-3.644-2.939-3.644-2.939c3.771,1.826,5.474,4.329,8.181,6.331C1216.751-549.735,1218.694-549.592,1218.694-549.592
			 M1190.761-547.919c-4.176-16.947,13.156-31.82,12.434-51.601c0.713-0.37,1.45-0.705,2.202-1.019
			c0.639,21.203-18.98,39.145-11.873,57.608C1192.515-544.481,1191.589-546.14,1190.761-547.919 M1186.987-560.61
			c-2.773-17.535,3.53-32.038,15.701-38.644c0.52,18.643-15.134,32.945-13.056,48.685
			C1188.479-553.57,1187.576-556.891,1186.987-560.61 M1179.763-545.442c0.978,2.971,1.679,7.223,4.449,10.587
			c3.217,3.904,6.621,6.56,10.487,8.337c-8.837-0.431-15.417,1.159-21.964-1.005l-0.376,0.859c9.138,3.038,19.323-0.87,36.466,4.298
			c-16.542-0.284-31.622,15.38-45.181,16.519c-8.169,0.664-13.733-4.351-14.486-9.695c-0.667-4.757,2.103-9.99,7.491-10.93
			l-0.056-0.58c-5.512,0.688-8.893,6.179-8.16,11.505c0.74,5.479,6.275,10.805,15.141,10.044
			c16.595-1.41,32.517-21.39,55.382-12.619c11.18,7.168,22.161,14.638,27.99,28.657c-0.37-0.802-0.761-1.607-1.187-2.415
			c-6.188-11.771-17.625-18.866-29.525-18.409c-0.444-0.043-1.044-0.067-1.725,0.137c-2.123,0.214-4.246,0.672-6.357,1.389
			l-0.021-0.071c-1.259-1.56-0.613-2.972-2.92-3.222c-2.308-0.255-2.839,0.301-3.668-0.149c0,0,0.354,0.209,0.562,0.904
			c0.204,0.674,0.899,3.601,2.731,3.888c-0.361,0.174-0.728,0.312-1.086,0.501c-1.132,0.597-2.184,1.25-3.162,1.95
			c-0.58-0.026-1.808-0.34-3.188,0.566c-0.976,0.638-1.062,1.999-0.95,3.132c-1.259,1.404-2.31,2.914-3.183,4.49
			c-1.935,0.325-2.856-0.874-4.175,1.005c-1.338,1.902-1.105,2.633-1.895,3.146c0,0,0.354-0.217,1.061-0.062
			c0.457,0.098,1.857,0.477,3.092,0.316c-0.352,1.075-0.629,2.168-0.838,3.266c-0.268,0.428-1.192,1.235-1.164,2.826
			c0.011,0.554,0.301,1.01,0.693,1.396c-0.047,1.479,0.025,2.946,0.213,4.381l-0.049,0.023c-0.936,1.055-1.98,0.771-1.886,2.395
			c0.097,1.627,0.538,1.928,0.325,2.548c0,0,0.104-0.267,0.559-0.487c0.272-0.138,1.119-0.506,1.727-1.068
			c0.295,1.107,0.662,2.178,1.095,3.203h-0.013c0.039,0.3-0.538,1.198,0.006,2.432c0.295,0.681,1.078,0.923,1.814,1.006
			c1.448,2.229,3.271,4.087,5.416,5.369c-2.029-1.219-3.807-3.074-5.232-5.352c0.537,0.043,1.025,0.01,1.23,0.004
			c0.504-0.013,0.725,0.178,0.725,0.178c-0.484-0.454-0.231-0.936-0.909-2.406c-0.673-1.48-1.468-0.741-2.781-1.234h-0.023
			c-0.445-1.089-0.822-2.231-1.125-3.419c0.284-0.324,0.48-0.698,0.446-1.13c-0.084-1.217-0.83-1.75-1.054-2.05
			c-0.179-1.359-0.265-2.748-0.235-4.15c0.869,0.705,2.084,1.098,2.474,1.245c0.619,0.236,0.794,0.583,0.794,0.583
			c-0.358-0.8,0.187-1.245,0.114-3.392c-0.074-2.14-1.414-1.643-2.761-2.911l-0.149-0.059c0.209-1.093,0.494-2.178,0.852-3.25
			c0.583-0.117,1.113-0.36,1.448-0.856c1.075-1.587,0.362-3.083,0.485-3.496c0.814-1.433,1.793-2.808,2.95-4.104
			c0.077,0.563,0.188,1.041,0.23,1.271c0.141,0.706-0.076,1.066-0.076,1.066c0.525-0.788,1.252-0.546,3.174-1.851
			c1.92-1.302,0.689-2.243,1.073-4.209l-0.026-0.135c0.947-0.661,1.954-1.288,3.045-1.861c0.558-0.294,1.117-0.522,1.677-0.776
			c1.188-0.079,1.927-0.682,2.364-0.959c1.871-0.667,3.748-1.134,5.618-1.395c-0.023,0.016-0.05,0.025-0.074,0.042
			c-1.608,1.057-0.814,4.085-0.671,4.792c0.138,0.705-0.075,1.06-0.075,1.06c0.521-0.78,1.252-0.54,3.17-1.844
			c1.92-1.299,0.69-2.248,1.08-4.212l-0.021-0.088c11.418-0.147,22.12,6.873,28.184,18.409c2.73,5.189,4.252,10.274,4.933,15.293
			c-4.549-14.549-17.567-26.009-31.821-22.923c-19.573,4.237-18.879,28.691-7.917,31.146c-10.412-2.374-11.229-26.902,8.493-30.417
			c6.862-1.222,13.511,0.986,18.963,5.299c-4.043-2.634-7.83-3.975-13.229-3.439c-4.6,0.453-7.86,4.243-10.082,3.709
			c3.299,1.51,6.201-1.065,10.34-2.093c5.589-1.391,9.88-0.443,14.572,3.181c8.892,8.073,13.982,21.932,10.286,35.096l0.445,0.138
			c0.562-1.058,0.912-2.245,0.912-3.524v-26.719c-7.657-27.627-32.153-32.201-48.762-46.291
			c-20.113-23.636,5.748-43.017,4.354-67.909c1.812-0.667,3.706-1.207,5.713-1.552c1.215-0.209,2.433-0.32,3.649-0.386
			c4.932,0.144,8.532,3.866,9.211,7.466c1.05,5.539-3.16,8.923-7.198,8.441c-5.146-0.614-5.253-7.668-1.207-7.804
			c-4.66,0.188-3.928,7.377,1.185,8.278c4.391,0.774,8.76-3.383,7.696-8.986c-0.618-3.286-2.81-5.96-5.692-7.349
			c0.228,0.017,0.455,0.02,0.682,0.042c3.596,0.626,7.168,1.966,10.702,4.396c8.692,5.973,11.819,16.504,5.911,25.098
			c-7.242,10.527-21.48,6.649-24.536-0.151c3.337,7.483,17.712,10.425,24.708,0.273c5.91-8.593,2.834-19.563-5.855-25.546
			c-2.046-1.406-4.108-2.447-6.182-3.214c10.643,2.755,19.687,11.217,21.995,24.644c3.772,21.968-17.435,32.935-32.026,27.083
			c14.376,7.524,36.578-5.297,32.799-27.262c-3.477-20.192-20.683-28.938-36.198-26.268c-1.892,0.325-3.701,0.838-5.455,1.455
			c-0.401-4.217-1.604-8.594-3.969-13.179c-8.481-16.456-23.83-20.734-36.648-14.291c-10.848,5.451-17.953,18.645-10.864,32.765
			c7.723,15.349,27.104,13.771,33.021,1.796c-6.373,10.316-24.545,13.221-32.262-2.133c-6.578-13.099-0.265-26.073,10.586-31.525
			c12.812-6.439,27.287-1.195,35.105,13.857c2.354,4.531,3.492,8.898,3.799,13.136c-0.754,0.302-1.479,0.649-2.199,1.002
			c-0.336-4.179-1.492-8.577-3.849-13.264c-6.081-12.119-19.507-17.959-31.494-11.933c-10.985,5.522-12.675,18.079-8.711,26.034
			l0.005,0.019c0.022,0.046,0.049,0.084,0.07,0.129c0.226,0.44,0.457,0.873,0.717,1.284c1.421,2.363,3.161,4.081,6.121,5.348
			c2.845,1.218,5.979,0.047,7.112,1.07c-1.449-1.94-3.983-1.369-6.734-2.096c-3.243-0.854-5.337-2.438-6.871-5.229
			c-0.057-0.107-0.11-0.214-0.166-0.323c-0.155-0.301-0.309-0.611-0.452-0.938c-3.311-7.783-1.867-19.574,9.038-25.054
			c11.979-6.021,24.831-0.2,30.918,11.919c2.354,4.683,3.493,9.081,3.802,13.26c-12.934,6.585-20.668,21.59-17.732,40.224
			c3.072,19.511,14.038,29.111,26.193,37.267c-5.035-1.793-9.449-2.676-13.414-3.075c-4.912-1.753-8.526-4.882-11.584-9.941
			c-2.489-4.095-3.229-8.4-5.844-10.895c0.025-0.031,0.043-0.063,0.071-0.097 M1229.694-485.216
			c-5.732,1.003-9.343,6.028-8.361,11.527c1,5.612,6.641,7.507,10.068,5.429c4.442-2.692,2.755-9.478-1.532-7.979
			c3.826-1.307,5.812,5.054,1.357,7.701c-3.008,1.771-8.459,0.246-9.444-5.312c-0.738-4.14,1.866-9.811,7.975-10.802
			c14.334-2.316,20.699,18.338,18.223,30.607c0.474-0.352,0.894-0.759,1.273-1.207
			C1251.393-466.862,1244.314-487.756,1229.694-485.216"/>
	</g>
</g>
</svg>
